<?xml version="1.0" standalone="no"?>
<!DOCTYPE svg PUBLIC "-//W3C//DTD SVG 20010904//EN"
 "http://www.w3.org/TR/2001/REC-SVG-20010904/DTD/svg10.dtd">
<svg version="1.0" xmlns="http://www.w3.org/2000/svg"
 width="16.000000pt" height="16.000000pt" viewBox="0 0 16.000000 16.000000"
 preserveAspectRatio="xMidYMid meet">
<metadata>
Created by potrace 1.11, written by Peter Selinger 2001-2013
</metadata>
<g transform="translate(0.000000,16.000000) scale(0.004000,-0.004000)"
fill="#000000" stroke="none">
<path d="M1785 3780 c-221 -34 -383 -85 -571 -180 -187 -94 -304 -179 -459
-335 -154 -154 -240 -270 -334 -455 -316 -622 -245 -1366 184 -1915 526 -675
1460 -885 2220 -500 258 130 465 305 640 540 344 464 441 1072 259 1625 -45
139 -158 363 -239 475 -79 110 -232 275 -328 353 -218 179 -497 311 -782 372
-80 17 -144 22 -315 25 -118 2 -242 0 -275 -5z m449 -36 c39 -6 46 -10 46 -29
0 -14 -7 -25 -19 -28 -13 -3 -20 -18 -25 -56 -6 -48 -8 -51 -36 -51 l-30 0 7
60 c5 52 4 60 -11 60 -10 0 -16 8 -16 25 0 28 7 29 84 19z m-162 -58 c18 -27
8 -46 -23 -46 l-31 0 23 -19 c21 -17 22 -20 7 -26 -59 -23 -112 28 -86 82 20
42 85 48 110 9z m-445 7 c4 -10 13 -24 21 -32 7 -8 11 -23 8 -34 -2 -11 2 -26
10 -34 24 -24 17 -43 -15 -43 -20 0 -36 8 -50 28 l-20 27 -1 -32 c0 -17 -7
-38 -15 -46 -21 -22 -83 -31 -102 -15 -14 11 -15 10 -9 -10 4 -12 3 -22 -3
-22 -5 0 -16 -3 -24 -6 -11 -4 -22 13 -41 63 -31 81 -31 89 -9 97 17 7 43 -16
43 -37 0 -4 7 -1 16 7 23 24 44 20 44 -8 0 -25 22 -51 33 -39 4 3 7 19 7 34 0
30 23 59 47 59 11 0 14 6 9 24 -4 18 -1 26 11 29 31 8 33 7 40 -10z m293 -3
c15 -15 20 -33 20 -74 0 -63 -16 -86 -61 -86 -22 0 -29 5 -29 20 0 11 7 20 15
20 8 0 15 5 15 10 0 6 -3 9 -7 9 -31 -5 -63 22 -63 52 0 26 43 69 70 69 11 0
29 -9 40 -20z m-141 -17 c25 -22 41 -103 20 -103 -8 0 -30 -3 -50 -6 -29 -5
-41 -2 -58 15 -59 59 23 147 88 94z m609 -11 c6 -9 12 -22 12 -29 0 -11 4 -11
22 1 24 17 65 21 84 8 17 -11 34 -48 26 -56 -4 -4 -7 -15 -7 -24 0 -9 -13 -23
-29 -30 -37 -18 -74 -3 -89 38 -13 35 -53 44 -42 10 6 -17 2 -20 -29 -20 -27
0 -40 6 -52 26 -43 65 55 137 104 76z m225 -8 c9 -3 13 -13 10 -25 -3 -12 3
-26 17 -37 23 -18 23 -19 5 -71 -15 -46 -19 -51 -38 -45 -12 4 -25 11 -28 16
-3 5 -9 9 -13 8 -4 -1 -15 0 -26 3 -19 5 -19 7 8 81 26 74 34 82 65 70z
m-1253 -114 c41 -41 15 -110 -42 -110 -33 0 -68 31 -68 60 0 27 43 70 70 70
11 0 29 -9 40 -20z m1400 0 c25 -25 25 -31 0 -80 -22 -44 -31 -48 -54 -25 -8
8 -24 15 -35 15 -11 0 -23 4 -26 10 -6 9 17 61 37 88 16 18 55 15 78 -8z m108
-24 c-10 -7 -15 -16 -12 -19 7 -7 -46 -107 -57 -107 -18 0 -39 13 -39 24 0 6
16 35 35 65 19 29 35 56 35 61 0 16 25 18 40 3 13 -13 13 -16 -2 -27z m-621
-12 c314 -46 601 -187 832 -408 244 -234 409 -563 451 -899 17 -136 8 -404
-19 -518 -50 -220 -149 -435 -276 -604 -132 -175 -326 -335 -526 -436 -222
-111 -434 -161 -688 -161 -420 -1 -778 148 -1077 446 -217 217 -352 464 -416
761 -25 118 -35 379 -19 509 83 657 592 1190 1248 1305 136 24 348 27 490 5z
m-992 -51 c14 -21 25 -40 25 -43 0 -4 -18 -16 -39 -28 -27 -15 -48 -21 -65
-16 -21 5 -26 3 -26 -14 0 -20 -59 -72 -82 -72 -11 0 -47 46 -91 117 -5 8 6
21 32 39 46 30 78 26 87 -12 8 -33 34 -31 34 3 0 37 27 63 66 63 27 0 38 -7
59 -37z m1687 -10 c19 -17 25 -63 7 -63 -5 0 -8 -4 -5 -9 4 -5 19 -3 36 5 26
13 32 13 59 0 33 -17 45 -43 35 -72 -9 -25 -45 -64 -59 -64 -19 0 -75 58 -75
79 0 17 -5 20 -29 15 -23 -5 -35 -1 -55 19 -31 31 -33 60 -6 87 24 24 67 26
92 3z m222 -109 c25 -10 20 -22 -35 -85 -44 -51 -53 -57 -70 -48 -25 13 -23
20 31 85 48 56 50 57 74 48z m-2212 -56 c26 -29 48 -56 48 -60 0 -4 -9 -12
-21 -18 -15 -9 -24 -8 -37 2 -15 12 -16 11 -3 -5 13 -16 12 -20 -5 -37 -22
-22 -26 -20 -76 38 -22 24 -38 53 -38 66 0 26 41 66 68 66 9 0 37 -23 64 -52z
m-145 -49 c6 -6 9 -17 6 -24 -2 -7 5 -16 16 -20 51 -16 67 -67 31 -100 -19
-17 -21 -17 -39 -1 -11 10 -18 23 -15 29 2 7 -9 20 -26 29 -24 14 -30 24 -30
51 0 18 3 37 7 40 10 11 38 8 50 -4z m2461 -51 c8 -8 15 -8 27 2 12 10 18 10
30 0 17 -14 20 -40 6 -40 -5 0 -11 -10 -13 -22 -2 -13 -13 -27 -25 -33 -13 -5
-23 -15 -23 -22 0 -19 -35 -34 -48 -21 -15 15 -15 51 0 66 18 18 4 24 -25 11
-22 -10 -31 -9 -52 5 -21 14 -24 20 -14 32 6 8 22 14 35 14 12 0 26 5 29 10 8
14 58 13 73 -2z m-2542 -33 c4 -8 11 -15 18 -15 6 -1 28 -16 49 -35 l39 -34
-29 -36 c-42 -54 -64 -55 -129 -5 l-56 42 20 21 20 20 41 -32 c55 -44 73 -29
21 18 -44 40 -52 71 -20 71 11 0 23 -7 26 -15z m2656 -98 c17 -27 8 -66 -23
-91 -17 -14 -34 -26 -39 -26 -13 0 -60 60 -60 76 0 25 20 55 43 63 24 9 67 -3
79 -22z m103 -81 c16 -12 17 -16 6 -30 -7 -9 -22 -16 -32 -16 -11 0 -19 -6
-19 -14 0 -26 -83 -42 -101 -20 -12 14 -9 20 16 40 33 26 84 53 101 54 5 0 19
-6 29 -14z m-2935 -95 c0 -5 14 -11 30 -14 17 -4 30 -13 30 -21 0 -8 7 -19 16
-24 11 -6 14 -16 9 -31 -8 -27 -11 -27 -75 12 -54 32 -70 57 -56 93 4 12 10
12 26 4 11 -6 20 -14 20 -19z m2991 13 c10 -13 10 -17 -2 -25 -16 -10 -28 -12
-48 -10 -7 2 -10 -2 -7 -8 8 -12 -17 -26 -61 -34 -26 -5 -35 -2 -43 13 -9 17
-5 24 37 50 52 33 103 39 124 14z m-3041 -84 c12 -12 25 -18 30 -15 4 3 24
-10 44 -28 32 -31 34 -36 21 -53 -13 -18 -16 -18 -72 11 -53 28 -58 33 -61 68
-4 42 8 47 38 17z m39 -111 c34 -12 36 -20 20 -68 -18 -52 -72 -68 -109 -31
-24 24 -26 57 -4 88 17 24 45 28 93 11z m3115 -41 c7 -27 2 -32 -47 -48 -20
-6 -42 -20 -47 -30 -10 -18 -8 -19 30 -5 22 8 41 14 43 14 1 0 10 3 20 7 21 8
42 -9 35 -28 -3 -7 -38 -26 -78 -41 -58 -23 -75 -26 -82 -15 -4 7 -6 21 -4 31
2 9 0 17 -4 17 -15 0 -22 38 -11 58 9 17 98 60 127 61 7 1 14 -9 18 -21z
m-3198 -82 c3 -7 15 -11 27 -9 12 2 29 -1 37 -6 22 -15 -15 -51 -52 -51 -34 0
-35 -6 -3 -36 24 -23 33 -58 17 -68 -13 -8 -52 5 -52 18 0 6 -10 16 -22 21
-26 11 -35 49 -18 71 10 11 10 14 -1 14 -26 0 -41 17 -35 37 5 16 16 20 52 21
28 0 47 -5 50 -12z m3249 -82 c24 -25 15 -49 -20 -50 -17 0 -43 -6 -58 -14
-39 -19 -81 -4 -85 32 -2 20 2 28 19 33 12 4 24 2 28 -4 5 -8 13 -7 27 4 25
19 69 19 89 -1z m30 -107 c19 -27 19 -61 1 -77 -18 -14 -134 -42 -147 -34 -16
10 -10 52 9 57 13 4 13 5 -4 6 -31 2 -40 49 -10 56 109 25 128 24 151 -8z
m-3332 -37 c51 -10 57 -14 57 -36 0 -28 -2 -28 -93 -10 -77 15 -81 17 -72 45
5 15 12 20 28 16 12 -2 48 -9 80 -15z m25 -76 c48 -13 11 -124 -42 -124 -38 0
-66 28 -66 65 0 56 39 77 108 59z m3337 -124 l0 -55 -35 -3 c-43 -4 -59 -18
-32 -26 29 -10 47 -58 31 -88 -17 -32 -28 -38 -76 -38 -42 0 -43 1 -44 33 -2
47 1 60 18 79 13 15 12 19 -7 38 -16 16 -20 31 -18 63 l3 42 60 6 c103 10 100
12 100 -51z m-3352 -22 c25 -13 24 -84 -2 -98 -29 -15 -77 -12 -91 6 -17 19
-17 68 -1 88 13 16 66 19 94 4z m17 -153 l0 -26 -82 2 c-46 2 -86 7 -90 12
-16 25 6 34 87 36 l85 2 0 -26z m-2 -62 c-2 -23 -9 -29 -38 -34 -35 -6 -35 -6
8 -8 39 -1 43 -3 40 -23 -2 -19 -10 -24 -47 -26 -101 -7 -112 98 -11 111 19 2
39 5 43 5 5 1 7 -10 5 -25z m3282 -3 c43 -43 9 -113 -52 -106 -35 4 -58 28
-58 61 0 56 70 85 110 45z m-3264 -122 c4 -13 2 -24 -5 -26 -7 -2 -6 -9 4 -19
24 -24 18 -42 -17 -48 -18 -3 -54 -9 -80 -14 -53 -9 -58 -7 -58 26 0 16 6 23
19 23 14 0 18 5 14 18 -7 30 22 46 109 61 4 0 10 -9 14 -21z m3245 -9 c63 -11
69 -14 69 -35 0 -19 -5 -24 -27 -24 -23 0 -28 -5 -29 -26 -2 -32 -11 -41 -26
-26 -14 14 -58 16 -58 3 0 -5 14 -19 30 -31 34 -24 42 -69 13 -71 -10 -1 -3
-6 15 -11 24 -8 32 -17 32 -34 0 -20 -5 -24 -32 -26 -46 -2 -71 1 -78 10 -3 4
-18 8 -34 9 -42 3 -44 12 -12 40 21 18 36 23 55 19 25 -6 25 -5 -8 22 -32 27
-33 31 -27 74 5 36 12 46 34 55 25 10 25 11 5 12 -18 1 -23 7 -23 26 0 29 4
29 101 14z m-3231 -119 c27 -27 26 -75 -1 -93 -18 -13 -19 -18 -9 -38 11 -20
13 -21 22 -5 9 17 11 17 29 0 39 -36 8 -104 -48 -104 -57 0 -84 69 -43 110
l20 20 -20 0 c-27 0 -60 35 -60 64 0 27 42 66 71 66 11 0 28 -9 39 -20z m3153
-177 c29 -33 26 -77 -8 -99 -22 -14 -31 -15 -70 -4 -25 7 -45 16 -45 20 0 16
33 85 44 92 20 14 63 8 79 -9z m-3055 -97 c10 -23 8 -25 -39 -45 -34 -15 -49
-27 -49 -41 0 -11 -9 -24 -20 -30 -19 -10 -23 -6 -45 45 -14 30 -25 58 -25 60
0 2 9 9 21 15 16 9 23 8 33 -5 11 -15 15 -14 56 4 56 26 55 26 68 -3z m2886
-12 c9 -3 16 -12 16 -20 0 -10 5 -10 28 2 38 22 78 6 87 -35 15 -68 -39 -98
-111 -62 -53 25 -73 59 -56 96 13 27 13 28 36 19z m-2867 -146 l10 -23 7 23
c9 28 26 24 46 -11 13 -24 13 -30 0 -54 -31 -56 -120 -35 -120 28 0 26 22 59
39 59 4 0 12 -10 18 -22z m2915 -5 c40 -36 13 -106 -41 -106 -39 0 -45 6 -31
32 9 19 8 21 -15 21 -29 0 -32 16 -9 48 18 27 69 30 96 5z m-2738 -85 c14 -20
14 -24 1 -37 -11 -12 -17 -12 -29 -1 -14 11 -15 9 -10 -19 16 -80 -96 -100
-121 -21 -8 26 3 44 45 75 43 32 93 33 114 3z m2604 -95 c27 -20 39 -24 51
-16 12 8 22 7 34 -2 23 -17 22 -21 -15 -69 -17 -22 -33 -42 -34 -44 -1 -2 -12
1 -23 8 -16 8 -20 17 -15 35 3 14 2 25 -2 25 -5 1 -24 14 -43 30 -29 25 -32
32 -21 45 17 21 28 19 68 -12z m-2574 -32 c22 -23 27 -37 24 -60 -4 -24 -2
-28 9 -20 33 28 58 -25 33 -72 -8 -15 -7 -19 4 -19 8 0 18 5 21 10 21 34 113
-28 102 -69 -4 -17 -2 -18 14 -8 15 9 22 8 35 -5 16 -16 14 -21 -35 -77 -29
-34 -56 -61 -61 -61 -4 0 -13 7 -20 15 -10 13 -10 19 4 33 17 20 22 37 7 28
-4 -3 -17 1 -27 10 -19 14 -18 15 4 30 25 18 30 54 8 54 -8 0 -18 -4 -21 -10
-9 -14 -59 -12 -73 2 -10 10 -17 10 -31 1 -15 -10 -22 -8 -35 6 -15 16 -15 20
-1 31 8 7 12 16 9 21 -7 13 21 39 42 39 13 0 15 3 8 10 -8 8 -19 7 -38 -1 -23
-11 -30 -10 -54 8 -41 30 -41 73 -2 107 17 14 35 26 39 26 4 0 20 -13 35 -29z
m2526 -47 c37 -44 -5 -122 -58 -109 -22 5 -24 3 -19 -16 17 -64 -60 -104 -110
-57 -28 26 -29 48 -4 79 15 18 28 23 59 22 48 -2 81 24 44 34 -26 6 -28 20 -5
45 20 22 76 24 93 2z m-180 -216 c47 -56 50 -63 35 -77 -13 -13 -19 -14 -36
-3 -15 10 -24 10 -34 2 -20 -16 -45 -4 -79 36 -23 28 -26 37 -16 49 7 8 18 15
24 15 6 0 17 9 24 20 7 11 16 20 21 20 5 0 32 -28 61 -62z m-2037 -29 c28 -15
37 -28 37 -58 0 -59 -84 -85 -116 -36 -17 27 -15 62 5 57 7 -1 9 2 5 9 -4 7 1
18 11 26 23 16 30 16 58 2z m1915 -28 c27 -48 27 -56 2 -81 -30 -30 -65 -25
-94 13 -31 40 -32 53 -8 66 13 8 22 4 40 -17 l23 -27 -18 33 c-16 29 -16 34
-3 42 26 16 36 11 58 -29z m-1798 -48 c19 -11 33 -29 37 -45 5 -24 8 -26 25
-17 22 12 108 -16 108 -35 0 -16 -56 -132 -67 -139 -5 -3 -27 4 -48 16 -43 24
-56 56 -30 77 17 14 20 40 6 40 -6 0 -13 -4 -16 -10 -10 -16 -67 -12 -87 7
-23 20 -23 53 0 92 20 36 29 37 72 14z m1676 0 c34 -55 64 -116 64 -128 0 -21
-39 -19 -47 3 -4 9 -14 25 -22 34 -9 9 -25 33 -35 53 -17 31 -18 38 -5 46 21
13 33 11 45 -8z m-51 -58 c14 -13 25 -31 25 -40 0 -21 -44 -65 -65 -65 -9 0
-25 5 -36 11 -16 8 -18 13 -8 25 10 12 9 13 -5 8 -9 -3 -16 -17 -16 -31 0 -36
-16 -60 -46 -67 -41 -11 -64 3 -84 47 l-19 42 32 17 c38 20 78 23 95 6 9 -9
12 -9 12 4 0 27 40 68 66 68 14 0 36 -11 49 -25z m-1344 -76 c12 -6 18 -17 15
-25 -3 -8 -1 -14 4 -14 6 0 10 5 10 10 0 13 37 13 45 0 9 -14 -24 -117 -42
-131 -17 -15 -70 -14 -89 2 -18 15 -18 57 0 100 7 19 16 42 19 52 7 20 11 21
38 6z m1106 -74 c22 -65 22 -71 6 -82 -9 -7 -20 -13 -24 -13 -10 0 -61 149
-53 161 3 6 15 9 27 7 15 -2 26 -19 44 -73z m-134 23 c4 -12 1 -28 -5 -35 -5
-7 -8 -19 -5 -27 7 -17 -20 -56 -39 -56 -8 0 -14 -10 -14 -25 0 -19 -5 -25
-23 -25 -32 0 -73 64 -56 86 6 8 4 14 -6 18 -11 4 -15 -1 -15 -21 0 -37 -27
-63 -66 -63 -39 0 -61 26 -66 80 -3 33 -2 35 40 43 34 7 49 5 68 -8 23 -15 24
-14 24 5 0 13 7 20 20 20 21 0 60 -33 60 -51 0 -5 5 -7 10 -4 6 3 10 19 10 35
0 45 53 69 63 28z m-795 -20 c2 -20 -1 -28 -12 -28 -11 0 -16 -10 -16 -32 0
-18 -4 -38 -8 -45 -10 -15 -53 -31 -69 -26 -18 6 -16 50 2 57 10 4 13 14 9 35
-8 38 25 74 64 69 21 -2 28 -9 30 -30z m125 -20 c13 -15 16 -30 12 -57 -16
-93 -15 -92 -43 -89 -24 3 -27 7 -24 33 7 60 7 70 -3 73 -5 1 -11 -9 -13 -23
-2 -14 -7 -25 -13 -25 -5 0 -8 -10 -6 -22 1 -17 -4 -24 -19 -26 -26 -4 -41 26
-18 35 10 4 12 8 5 12 -8 5 -7 24 1 65 l12 58 46 -7 c27 -4 52 -14 63 -27z
m277 -63 c0 -68 -20 -105 -55 -105 -18 0 -20 41 -3 58 9 9 9 12 0 12 -14 0
-16 46 -2 55 6 3 10 15 10 26 0 14 7 19 25 19 24 0 25 -2 25 -65z m83 8 c5
-47 3 -63 -12 -83 -10 -14 -25 -26 -33 -28 -18 -3 -32 38 -18 52 5 5 4 16 -3
27 -9 15 -9 24 1 39 6 11 12 27 12 35 0 9 9 15 24 15 21 0 24 -5 29 -57z"/>
<path d="M1870 3650 c0 -5 5 -10 11 -10 5 0 7 5 4 10 -3 6 -8 10 -11 10 -2 0
-4 -4 -4 -10z"/>
<path d="M1730 3626 c0 -9 5 -16 10 -16 6 0 10 4 10 9 0 6 -4 13 -10 16 -5 3
-10 -1 -10 -9z"/>
<path d="M2460 3590 c0 -5 10 -10 23 -10 18 0 19 2 7 10 -19 13 -30 13 -30 0z"/>
<path d="M1317 3503 c-10 -9 -9 -23 2 -23 5 0 11 7 15 15 5 15 -5 20 -17 8z"/>
<path d="M1852 3440 c-262 -33 -531 -146 -733 -307 -361 -287 -570 -750 -545
-1206 22 -423 219 -802 553 -1068 435 -346 1054 -406 1550 -151 276 141 502
369 634 637 115 235 152 397 152 655 0 257 -38 419 -154 655 -133 272 -364
501 -644 640 -130 64 -222 96 -365 125 -120 24 -335 34 -448 20z m-188 -262
c-7 -11 12 -10 81 8 97 23 277 29 364 10 143 -30 280 -116 321 -202 46 -93 13
-204 -93 -320 l-58 -63 33 -5 c18 -3 57 -8 86 -11 72 -8 154 -41 201 -81 128
-110 104 -274 -66 -455 -57 -59 -164 -151 -232 -196 -11 -8 17 -16 135 -38
240 -47 389 -52 499 -20 17 5 26 -5 55 -62 19 -37 34 -72 35 -78 0 -21 -101
-47 -206 -52 -93 -5 -256 7 -326 24 -29 7 -42 -22 -129 -284 -68 -205 -114
-405 -114 -497 0 -53 1 -56 25 -56 21 0 29 -9 50 -57 41 -92 41 -99 4 -112
-44 -15 -115 -14 -148 3 -48 25 -89 81 -98 133 -27 157 33 443 167 800 22 58
39 107 38 108 -2 1 -55 14 -119 28 l-116 26 -67 -25 c-95 -34 -102 -33 -118
24 l-13 47 -130 27 c-172 35 -175 35 -203 -6 -43 -63 -138 -152 -185 -174 -64
-30 -141 -45 -185 -37 -113 21 -182 89 -182 181 0 29 4 64 10 78 18 47 88 112
153 142 55 25 77 28 197 33 l135 6 27 72 c55 144 46 270 -33 473 -23 58 -53
141 -67 185 -14 44 -27 82 -28 84 -2 2 -15 -4 -28 -13 -14 -9 -30 -16 -36 -16
-10 0 -100 118 -100 132 0 4 38 31 85 59 80 49 87 56 120 123 19 39 58 97 87
129 l51 58 63 -62 c35 -34 61 -66 58 -71z"/>
<path d="M1890 3034 c-71 -9 -187 -37 -267 -66 l-83 -30 0 -36 c0 -21 16 -82
36 -137 96 -269 114 -326 123 -403 12 -97 2 -198 -30 -296 -12 -36 -20 -68
-18 -69 6 -5 320 -70 362 -75 31 -3 50 3 110 39 215 127 370 283 371 373 1 37
-2 42 -43 64 -33 19 -63 26 -130 30 -138 7 -266 -21 -415 -94 -39 -19 -85 -34
-102 -34 -39 0 -84 40 -84 74 0 47 21 71 114 128 193 118 372 269 423 356 24
40 24 44 9 67 -19 29 -91 72 -149 90 -49 15 -174 25 -227 19z"/>
<path d="M1265 1843 c-51 -11 -83 -25 -104 -44 -53 -50 42 -55 115 -6 71 48
67 68 -11 50z"/>
<path d="M1185 3430 c-3 -5 1 -10 10 -10 9 0 13 5 10 10 -3 6 -8 10 -10 10 -2
0 -7 -4 -10 -10z"/>
<path d="M2890 3401 c0 -5 7 -12 16 -15 24 -9 27 -7 10 9 -17 17 -26 19 -26 6z"/>
<path d="M3000 3320 c0 -5 5 -10 10 -10 6 0 10 5 10 10 0 6 -4 10 -10 10 -5 0
-10 -4 -10 -10z"/>
<path d="M3320 3010 c0 -5 5 -10 11 -10 5 0 7 5 4 10 -3 6 -8 10 -11 10 -2 0
-4 -4 -4 -10z"/>
<path d="M485 2641 c-6 -11 9 -23 19 -14 9 9 7 23 -3 23 -6 0 -12 -4 -16 -9z"/>
<path d="M3670 2339 c0 -5 5 -7 10 -4 6 3 10 8 10 11 0 2 -4 4 -10 4 -5 0 -10
-5 -10 -11z"/>
<path d="M375 2211 c-3 -5 -1 -12 5 -16 5 -3 10 1 10 9 0 18 -6 21 -15 7z"/>
<path d="M3660 1995 c0 -8 5 -15 10 -15 6 0 10 7 10 15 0 8 -4 15 -10 15 -5 0
-10 -7 -10 -15z"/>
<path d="M360 2076 c0 -9 5 -16 10 -16 6 0 10 4 10 9 0 6 -4 13 -10 16 -5 3
-10 -1 -10 -9z"/>
<path d="M3652 1849 c2 -6 8 -10 13 -10 5 0 11 4 13 10 2 6 -4 11 -13 11 -9 0
-15 -5 -13 -11z"/>
<path d="M406 1611 c-4 -5 -2 -12 3 -15 5 -4 12 -2 15 3 4 5 2 12 -3 15 -5 4
-12 2 -15 -3z"/>
<path d="M3555 1430 c-3 -5 1 -10 9 -10 9 0 16 5 16 10 0 6 -4 10 -9 10 -6 0
-13 -4 -16 -10z"/>
<path d="M3510 1289 c0 -5 5 -7 10 -4 6 3 10 8 10 11 0 2 -4 4 -10 4 -5 0 -10
-5 -10 -11z"/>
<path d="M650 1060 c0 -5 5 -10 10 -10 6 0 10 5 10 10 0 6 -4 10 -10 10 -5 0
-10 -4 -10 -10z"/>
<path d="M735 950 c-3 -5 1 -10 9 -10 9 0 16 5 16 10 0 6 -4 10 -9 10 -6 0
-13 -4 -16 -10z"/>
<path d="M3160 810 c0 -5 5 -10 10 -10 6 0 10 5 10 10 0 6 -4 10 -10 10 -5 0
-10 -4 -10 -10z"/>
<path d="M1055 650 c4 -6 11 -8 16 -5 14 9 11 15 -7 15 -8 0 -12 -5 -9 -10z"/>
<path d="M1180 569 c0 -5 5 -7 10 -4 6 3 10 8 10 11 0 2 -4 4 -10 4 -5 0 -10
-5 -10 -11z"/>
<path d="M2776 535 c-3 -9 0 -15 9 -15 16 0 20 16 6 24 -5 3 -11 -1 -15 -9z"/>
<path d="M2650 480 c0 -5 7 -10 16 -10 8 0 12 5 9 10 -3 6 -10 10 -16 10 -5 0
-9 -4 -9 -10z"/>
<path d="M2225 360 c4 -6 11 -8 16 -5 14 9 11 15 -7 15 -8 0 -12 -5 -9 -10z"/>
</g>
</svg>
